<svg xmlns="http://www.w3.org/2000/svg" viewBox="0 0 280 56">
  <defs>
    <linearGradient id="sunGrad" x1="0" y1="0" x2="0" y2="1">
      <stop offset="0" stop-color="#FBBF24"/>
      <stop offset="1" stop-color="#F59E0B"/>
    </linearGradient>
    <linearGradient id="mtnGrad" x1="0" y1="1" x2="0" y2="0">
      <stop offset="0" stop-color="#1a3a1c"/>
      <stop offset="1" stop-color="#2F5130"/>
    </linearGradient>
  </defs>
  <!-- Sun circle with rays -->
  <circle cx="28" cy="18" r="8" fill="url(#sunGrad)"/>
  <g stroke="#FBBF24" stroke-width="1.5" stroke-linecap="round" opacity="0.9">
    <line x1="28" y1="5" x2="28" y2="8"/>
    <line x1="28" y1="28" x2="28" y2="31"/>
    <line x1="15" y1="18" x2="18" y2="18"/>
    <line x1="38" y1="18" x2="41" y2="18"/>
    <line x1="18.8" y1="8.8" x2="21" y2="11"/>
    <line x1="35" y1="25" x2="37.2" y2="27.2"/>
    <line x1="37.2" y1="8.8" x2="35" y2="11"/>
    <line x1="21" y1="25" x2="18.8" y2="27.2"/>
  </g>
  <!-- Mountains -->
  <path d="M4 48 L20 22 L28 32 L38 18 L52 48 Z" fill="url(#mtnGrad)"/>
  <path d="M14 48 L30 28 L38 36 L46 24 L56 48 Z" fill="#2F5130" opacity="0.7"/>
  <!-- Text -->
  <text x="66" y="28" font-family="'Playfair Display', Georgia, serif" font-size="19" font-weight="700" fill="#F5F1E6" letter-spacing="0.5">MOUNTAINEER</text>
  <text x="66" y="46" font-family="'Inter', 'Helvetica Neue', sans-serif" font-size="13" font-weight="600" fill="#F59E0B" letter-spacing="3">SOLAR</text>
</svg>
